<svg width="1792" height="320" version="1.1" viewBox="0 0 474.13 84.667" xmlns="http://www.w3.org/2000/svg" xmlns:xlink="http://www.w3.org/1999/xlink">
 <defs>
  <filter id="filter37415" x="-.0083333" y="-.05625" width="1.0167" height="1.1125" color-interpolation-filters="sRGB">
   <feFlood flood-color="rgb(0,0,0)" flood-opacity=".50196" result="flood"/>
   <feComposite in="flood" in2="SourceGraphic" operator="in" result="composite1"/>
   <feGaussianBlur in="composite1" result="blur" stdDeviation="6"/>
   <feOffset dx="0" dy="0" result="offset"/>
   <feComposite in="SourceGraphic" in2="offset" result="composite2"/>
  </filter>
  <linearGradient id="linearGradient1987" x1="355.6" x2="440.27" y1="33.867" y2="33.867" gradientTransform="matrix(3.7795 0 0 3.7795 0 32)" gradientUnits="userSpaceOnUse">
   <stop stop-color="#745f86" offset="0"/>
   <stop stop-color="#745f86" stop-opacity="0" offset="1"/>
  </linearGradient>
 </defs>
 <text transform="matrix(.52917 0 0 .52917 6.6667e-6 -15.533)" fill="#000000" font-family="Bahnschrift" font-size="40px" style="line-height:1.25;shape-inside:url(#rect10272);white-space:pre" xml:space="preserve"/>
 <path transform="scale(.26458)" d="m160 32c-2.737 0.0026-5.4158 0.12422-8.0684 0.30078-0.90104 0.05428-1.8015 0.11808-2.7012 0.19141-1.5707 0.14067-3.1218 0.32558-4.6641 0.52734-64.219 7.8001-112.52 62.29-112.57 126.98 0.0433 64.691 48.348 119.18 112.57 126.98 1.5423 0.20176 3.0934 0.38667 4.6641 0.52734 0.89969 0.0733 1.8001 0.13714 2.7012 0.19141 2.6525 0.17656 5.3313 0.29815 8.0684 0.30078 2.7803-3e-3 5.5475-0.12842 8.3066-0.31055 0.72698-0.0439 1.4536-0.0941 2.1797-0.15039 2.5593-0.21286 5.1062-0.4965 7.6387-0.86133 0.86469-0.13047 1.728-0.26979 2.5898-0.41796 2.0003-0.33016 3.9904-0.70505 5.9688-1.1289 1.1769-0.25037 2.3502-0.51732 3.5195-0.80078 1.8691-0.45594 3.7257-0.95505 5.5703-1.4941 1.1526-0.33215 2.3005-0.68049 3.4434-1.0449 2.0569-0.66442 4.0991-1.3712 6.1191-2.1387 1.2929-0.49863 2.5775-1.0182 3.8535-1.5586 1.1095-0.46328 2.2103-0.94689 3.3066-1.4414 2.2026-0.99358 4.3767-2.0493 6.5195-3.166 0.83951-0.43744 1.6796-0.87185 2.5098-1.3281 1.4573-0.7948 2.899-1.6179 4.3242-2.4688l0.13086-0.082c3.0827-1.8627 6.0853-3.8547 9-5.9707 0.39563-0.28672 0.78706-0.57964 1.1797-0.8711 2.8866-2.1367 5.6821-4.3939 8.3789-6.7656h2e-3l1515.5-3e-5v-192l-1515.3 5e-6c-1.3592-1.1952-2.7437-2.3615-4.1524-3.498-0.17161-0.13887-0.34141-0.28005-0.51367-0.41797-1.3579-1.0859-2.7377-2.1441-4.1387-3.1738-0.18626-0.13706-0.37362-0.2722-0.56055-0.4082-1.4268-1.0403-2.8751-2.0509-4.3438-3.0312-0.11398-0.07592-0.22954-0.14907-0.34375-0.22461-1.5308-1.0151-3.0832-1.9971-4.6562-2.9453-1.5308-0.91707-3.0806-1.802-4.6484-2.6543-0.19418-0.10595-0.38733-0.21343-0.58203-0.31836-1.5127-0.81455-3.0417-1.5986-4.5859-2.3516-0.21911-0.10693-0.43852-0.21269-0.65821-0.31836-1.5626-0.75335-3.1404-1.4749-4.7324-2.1641-0.15643-0.06756-0.31401-0.13229-0.4707-0.19922-1.6594-0.71112-3.3336-1.387-5.0215-2.0273-1.655-0.62238-3.3226-1.2104-5.002-1.7637-0.22813-0.07559-0.45503-0.15421-0.68359-0.22852-1.588-0.51493-3.186-0.99875-4.793-1.4512-0.31473-0.08887-0.62986-0.17525-0.94532-0.26172-1.6283-0.44837-3.2654-0.86447-4.9102-1.248-0.18062-0.0419-0.36215-0.07997-0.54297-0.12109-1.7261-0.39401-3.4602-0.75216-5.2012-1.0742l-0.082-0.01758c-8e-3 -0.0015-0.017-0.0024-0.0254-0.0039-1.7123-0.31105-3.4308-0.58715-5.1543-0.82812-0.28007-0.03959-0.55942-0.08139-0.83984-0.11914-1.6699-0.22378-3.3441-0.41458-5.0215-0.57227-0.28964-0.0274-0.57919-0.05465-0.86914-0.08008-1.6922-0.14961-3.3872-0.26552-5.084-0.34766-0.25562-0.01219-0.51177-0.01863-0.76758-0.0293-1.7757-0.07737-3.5527-0.11774-5.3301-0.12109z" fill="url(#linearGradient1987)" filter="url(#filter37415)" stroke-width="3.78"/>
 <g transform="matrix(.5 0 0 .5 -262.48 76.047)" fill="#fff" stroke-width="8.4667">
  <path d="m572.94-53.975 36.662 21.167 36.662-21.167v-25.4l-36.662 21.167-36.662-21.167z"/>
  <path d="m572.94-81.492 36.662-21.167 36.662 21.167-21.997 12.7-14.665-8.4667-14.665 8.4667z"/>
 </g>
 <g transform="translate(-1.2351e-6 2.5402)" font-family="'Noto Sans'" stroke-width=".26458">
  <text x="73.719536" y="41.203327" font-size="28.222px" style="line-height:1.25" xml:space="preserve"><tspan x="73.719536" y="41.203327" fill="#ffffff" font-family="Bahnschrift" font-size="28.222px" stroke-width=".26458">Minecommons</tspan></text>
  <text x="75.166473" y="56.688351" font-size="14.111px" style="line-height:1.25" xml:space="preserve"><tspan x="75.166473" y="56.688351" fill="#ffffff" font-family="Bahnschrift" font-size="14.111px" stroke-width=".26458">Common utilities for Minecraft projects</tspan></text>
 </g>
</svg>
