<?xml version="1.0" encoding="UTF-8"?>
<!-- Created with Inkscape (http://www.inkscape.org/) -->
<svg width="256" height="256" version="1.1" viewBox="0 0 67.733 67.733" xml:space="preserve" xmlns="http://www.w3.org/2000/svg" xmlns:xlink="http://www.w3.org/1999/xlink"><defs><linearGradient id="linearGradient390" x1="33.867" x2="33.867" y2="67.733" gradientTransform="translate(2.7729e-6)" gradientUnits="userSpaceOnUse"><stop stop-color="#4b4a5b" offset="0"/><stop stop-color="#797891" offset="1"/></linearGradient></defs><rect width="67.733" height="67.733" ry="0" fill="url(#linearGradient390)" stroke-width=".26458"/><path d="m12.7 27.517v14.817-14.817z" fill="#00f" stroke-width="2.6458"/><path d="m32.443 14.243-19.486 11.25a0.43301 0.43301 90.001 0 0-7e-6 0.75l19.486 11.25a1.299 1.299 180 0 0 1.299-7e-6l19.485-11.25a0.43302 0.43302 89.999 0 0-7e-6 -0.75001l-19.485-11.25a1.2991 1.2991 3.0856e-4 0 0-1.299-7e-6zm1.299 3.9998 12.557 7.25a0.43303 0.43303 90 0 1 0 0.75002l-12.557 7.25a1.299 1.299 180 0 1-1.299 1e-5l-12.557-7.25a0.43301 0.43301 90 0 1 0-0.75l12.557-7.25a1.299 1.299 4.6375e-4 0 1 1.299 1e-5zm-21.001 10.817v11.916a1.5616 1.5616 60.263 0 0 0.76844 1.3452l18.937 11.166a1.2719 1.2719 180 0 0 1.2921-2.1e-5l19.058-11.238a1.313 1.313 119.74 0 0 0.64604-1.131v-11.36a0.50953 0.50953 29.734 0 0-0.76839-0.43888l-18.936 11.168a1.2667 1.2667 0.097712 0 1-1.2907-0.0022l-19.458-11.566a0.16456 0.16456 150.36 0 0-0.24865 0.14146z" fill="#fff" stroke-width="2.6458"/></svg>
